<?xml version="1.0" encoding="UTF-8" standalone="no"?>
<svg
   width="78"
   height="56"
   viewBox="0 0 78 56"
   fill="none"
   version="1.1"
   id="svg6"
   sodipodi:docname="default-small.svg"
   inkscape:version="1.3 (0e150ed, 2023-07-21)"
   xml:space="preserve"
   xmlns:inkscape="http://www.inkscape.org/namespaces/inkscape"
   xmlns:sodipodi="http://sodipodi.sourceforge.net/DTD/sodipodi-0.dtd"
   xmlns="http://www.w3.org/2000/svg"
   xmlns:svg="http://www.w3.org/2000/svg"><sodipodi:namedview
     id="namedview6"
     pagecolor="#ffffff"
     bordercolor="#666666"
     borderopacity="1.0"
     inkscape:showpageshadow="2"
     inkscape:pageopacity="0.0"
     inkscape:pagecheckerboard="0"
     inkscape:deskcolor="#d1d1d1"
     inkscape:zoom="3.7038029"
     inkscape:cx="23.759364"
     inkscape:cy="22.679393"
     inkscape:window-width="1680"
     inkscape:window-height="959"
     inkscape:window-x="0"
     inkscape:window-y="25"
     inkscape:window-maximized="1"
     inkscape:current-layer="svg6" /><defs
     id="defs6"><filter
       id="filter0_i_5011_1731"
       x="24.9084"
       y="0"
       width="22.1854"
       height="55.3535"
       filterUnits="userSpaceOnUse"
       color-interpolation-filters="sRGB"><feFlood
         flood-opacity="0"
         result="BackgroundImageFix"
         id="feFlood4" /><feBlend
         mode="normal"
         in="SourceGraphic"
         in2="BackgroundImageFix"
         result="shape"
         id="feBlend4" /><feColorMatrix
         in="SourceAlpha"
         type="matrix"
         values="0 0 0 0 0 0 0 0 0 0 0 0 0 0 0 0 0 0 127 0"
         result="hardAlpha"
         id="feColorMatrix4" /><feOffset
         dx="-4"
         dy="3"
         id="feOffset4" /><feComposite
         in2="hardAlpha"
         operator="arithmetic"
         k2="-1"
         k3="1"
         id="feComposite4" /><feColorMatrix
         type="matrix"
         values="0 0 0 0 0.904167 0 0 0 0 0.892865 0 0 0 0 0.892865 0 0 0 0.4 0"
         id="feColorMatrix5" /><feBlend
         mode="normal"
         in2="shape"
         result="effect1_innerShadow_5011_1731"
         id="feBlend5" /></filter><linearGradient
       id="paint0_linear_5011_1731"
       x1="29"
       y1="24.5"
       x2="49"
       y2="30.5"
       gradientUnits="userSpaceOnUse"><stop
         stop-opacity="0.2"
         id="stop5" /><stop
         offset="0.911458"
         stop-color="white"
         stop-opacity="0"
         id="stop6" /></linearGradient><clipPath
       clipPathUnits="userSpaceOnUse"
       id="clipPath5-5"><path
         d="M 0,1024 H 1024 V 0 H 0 Z"
         transform="translate(-422.93291,-751.14442)"
         id="path5-9-5" /></clipPath><filter
       id="filter0_i"
       x="24.9083"
       y="0"
       width="22.1854"
       height="55.3535"
       filterUnits="userSpaceOnUse"
       color-interpolation-filters="sRGB"><feFlood
         flood-opacity="0"
         result="BackgroundImageFix"
         id="feFlood5" /><feBlend
         mode="normal"
         in="SourceGraphic"
         in2="BackgroundImageFix"
         result="shape"
         id="feBlend5-7" /><feColorMatrix
         in="SourceAlpha"
         type="matrix"
         values="0 0 0 0 0 0 0 0 0 0 0 0 0 0 0 0 0 0 127 0"
         result="hardAlpha"
         id="feColorMatrix5-9" /><feOffset
         dx="-4"
         dy="3"
         id="feOffset5" /><feComposite
         in2="hardAlpha"
         operator="arithmetic"
         k2="-1"
         k3="1"
         id="feComposite5" /><feColorMatrix
         type="matrix"
         values="0 0 0 0 0.904167 0 0 0 0 0.892865 0 0 0 0 0.892865 0 0 0 0.4 0"
         id="feColorMatrix6" /><feBlend
         mode="normal"
         in2="shape"
         result="effect1_innerShadow"
         id="feBlend6" /></filter><linearGradient
       id="paint0_linear"
       x1="29"
       y1="24.5"
       x2="40.5"
       y2="27.5"
       gradientUnits="userSpaceOnUse"><stop
         stop-opacity="0.25"
         id="stop6-3" /><stop
         offset="0.911458"
         stop-color="white"
         stop-opacity="0"
         id="stop7" /></linearGradient><clipPath
       clipPathUnits="userSpaceOnUse"
       id="clipPath5"><path
         d="M 0,1024 H 1024 V 0 H 0 Z"
         transform="translate(-422.93291,-751.14442)"
         id="path5-0" /></clipPath><clipPath
       clipPathUnits="userSpaceOnUse"
       id="clipPath3"><path
         d="M 0,1024 H 1024 V 0 H 0 Z"
         transform="translate(-410.18001,-259.65798)"
         id="path3-3" /></clipPath></defs><path
     id="path3"
     style="fill:#cd1f36;fill-opacity:1;fill-rule:evenodd;stroke-width:1.33333"
     d="m 42.705523,0.56044717 c -1.065326,0.02791 -2.083059,0.2667628 -3.020131,0.67202373 a 1.1315842,1.1315842 0 0 0 0,1.555e-4 c -1.44194,0.6236398 -2.663537,1.6334758 -3.631062,2.8690792 a 1.1315842,1.1315842 0 0 0 0,1.567e-4 c -1.174533,1.500391 -1.992967,3.3454995 -2.403705,5.3092867 -1.206077,5.764989 0.558229,11.971173 2.105418,17.59585 0.795268,2.890695 1.537668,5.620178 1.795828,7.77561 0.258161,2.155432 -0.01184,3.550523 -0.710969,4.185633 a 1.1315842,1.1315842 0 0 0 -3.13e-4,1.56e-4 c -0.392396,0.356668 -0.767612,0.61489 -1.119529,0.795279 a 1.1315842,1.1315842 0 0 0 -3.12e-4,1.56e-4 c -0.912023,0.467768 -1.840559,0.536652 -2.773927,0.298286 C 31.95,39.807598 30.94328,39.181315 30.097749,38.250408 a 1.1315842,1.1315842 0 0 0 -3.13e-4,-3.06e-4 C 29.638085,37.744733 29.238223,37.1713 28.918821,36.548647 v -1.56e-4 C 26.975792,32.758521 26.467093,27.013534 27.368282,21.3229 a 1.1315842,1.1315842 0 0 0 0,-1.57e-4 C 28.258637,15.699155 30.50268,10.234839 33.70897,6.7790982 l -0.0012,0.0012 C 34.937225,5.4589791 34.861795,3.3569522 33.540484,2.1273042 32.2192,0.89783907 30.11714,0.97307447 28.88749,2.2945462 a 1.1315842,1.1315842 0 0 0 -0.0012,0.0012 c -4.239479,4.5693681 -6.94435,11.2352278 -8.015117,17.9976898 -1.090929,6.889781 -0.50373,13.984313 2.19507,19.247956 0.598928,1.167927 1.328564,2.224246 2.160096,3.13957 1.675884,1.844799 3.786302,3.180399 6.094942,3.7702 2.389739,0.610533 4.984042,0.401621 7.394695,-0.834683 0.898184,-0.460315 1.756523,-1.051008 2.555674,-1.777043 2.408117,-2.1878 3.109576,-5.208425 2.939641,-8.383943 C 44.041382,32.279968 43.078823,28.833744 42.099332,25.273422 40.685788,20.134741 39.269758,14.698002 40.09472,10.755437 a 1.1315842,1.1315842 0 0 0 1.57e-4,-3.13e-4 c 0.214888,-1.028372 0.627246,-1.948738 1.138314,-2.6016445 l 1.56e-4,-1.567e-4 c 0.347394,-0.4435073 0.723528,-0.74086 1.058436,-0.885695 0.289869,-0.1253577 0.6057,-0.1713813 1.029723,-0.082785 0.471548,0.098517 1.092626,0.3806143 1.830804,0.9585498 a 1.1315842,1.1315842 0 0 0 1.57e-4,1.555e-4 c 0.463411,0.3626755 0.907538,0.7655737 1.329689,1.2055183 3.388923,3.5316206 4.808234,9.0818146 4.555397,14.8194776 -0.257794,5.848071 -2.250521,11.748566 -5.319212,15.668519 -0.473938,0.605397 -0.983093,1.170743 -1.521217,1.687238 a 1.1315842,1.1315842 0 0 0 -9.13e-4,9.14e-4 c -1.29992,1.250392 -1.33934,3.351812 -0.0895,4.651315 a 1.1315842,1.1315842 0 0 0 0,1.56e-4 c 1.250416,1.299784 3.352493,1.343017 4.653454,0.09195 0.750762,-0.720459 1.46439,-1.517479 2.139629,-2.379879 3.984754,-5.09016 6.396893,-12.285791 6.711826,-19.43368 C 57.931899,17.190359 56.079619,9.848488 51.224805,4.7892431 50.608189,4.1466753 49.934126,3.5351985 49.201712,2.9619527 L 49.201555,2.961796 C 47.697433,1.7840993 46.167126,1.0550792 44.663109,0.74060707 a 1.1315842,1.1315842 0 0 0 0,-1.567e-4 c -0.664183,-0.1388127 -1.319344,-0.19679 -1.957572,-0.1800714 z M 28.386242,49.431784 c -1.646528,0 -3.005317,1.358787 -3.005317,3.005317 0,1.646529 1.358789,3.005318 3.005317,3.005318 h 21.232411 c 1.646487,0 3.005316,-1.358712 3.005316,-3.005318 0,-1.646605 -1.358829,-3.005317 -3.005316,-3.005317 z" /></svg>
